<svg width="101" height="165" viewBox="0 0 101 165" fill="none" xmlns="http://www.w3.org/2000/svg">
<g filter="url(#filter0_d_3_5)">
<path d="M47.872 48.4C53.8453 53.264 58.2827 59.792 61.184 67.984C64.0853 76.176 65.536 84.624 65.536 93.328C65.536 101.947 64.128 110.139 61.312 117.904C58.496 125.669 54.016 132.368 47.872 138H21.504C15.36 132.368 10.88 125.669 8.064 117.904C5.248 110.139 3.84 101.947 3.84 93.328C3.84 84.624 5.29067 76.176 8.192 67.984C11.0933 59.792 15.5307 53.264 21.504 48.4H47.872ZM30.08 123.152H39.296C41.4293 120.677 43.2213 116.667 44.672 111.12C46.208 105.488 46.976 99.5573 46.976 93.328C46.976 87.0987 46.2507 81.2533 44.8 75.792C43.3493 70.2453 41.5573 66.2347 39.424 63.76H30.08C27.9467 66.2347 26.112 70.2453 24.576 75.792C23.1253 81.2533 22.4 87.0987 22.4 93.328C22.4 99.5573 23.1253 105.488 24.576 111.12C26.112 116.667 27.9467 120.677 30.08 123.152Z" fill="#380654"/>
</g>
<g filter="url(#filter1_d_3_5)">
<path d="M55.608 81.8487H36.28V66.4887H92.344V81.8487H73.016V156.089H55.608V81.8487Z" fill="#FFFF47"/>
</g>
<defs>
<filter id="filter0_d_3_5" x="3.84" y="48.4" width="69.696" height="97.6" filterUnits="userSpaceOnUse" color-interpolation-filters="sRGB">
<feFlood flood-opacity="0" result="BackgroundImageFix"/>
<feColorMatrix in="SourceAlpha" type="matrix" values="0 0 0 0 0 0 0 0 0 0 0 0 0 0 0 0 0 0 127 0" result="hardAlpha"/>
<feOffset dx="4" dy="4"/>
<feGaussianBlur stdDeviation="2"/>
<feComposite in2="hardAlpha" operator="out"/>
<feColorMatrix type="matrix" values="0 0 0 0 0 0 0 0 0 0 0 0 0 0 0 0 0 0 0.5 0"/>
<feBlend mode="normal" in2="BackgroundImageFix" result="effect1_dropShadow_3_5"/>
<feBlend mode="normal" in="SourceGraphic" in2="effect1_dropShadow_3_5" result="shape"/>
</filter>
<filter id="filter1_d_3_5" x="36.28" y="66.4887" width="64.064" height="97.6" filterUnits="userSpaceOnUse" color-interpolation-filters="sRGB">
<feFlood flood-opacity="0" result="BackgroundImageFix"/>
<feColorMatrix in="SourceAlpha" type="matrix" values="0 0 0 0 0 0 0 0 0 0 0 0 0 0 0 0 0 0 127 0" result="hardAlpha"/>
<feOffset dx="4" dy="4"/>
<feGaussianBlur stdDeviation="2"/>
<feComposite in2="hardAlpha" operator="out"/>
<feColorMatrix type="matrix" values="0 0 0 0 0 0 0 0 0 0 0 0 0 0 0 0 0 0 0.5 0"/>
<feBlend mode="normal" in2="BackgroundImageFix" result="effect1_dropShadow_3_5"/>
<feBlend mode="normal" in="SourceGraphic" in2="effect1_dropShadow_3_5" result="shape"/>
</filter>
</defs>
</svg>
